# xmcd
#
# Track frame offsets: 
#        150
#        20063
#        40045
#        57205
#        74242
#        101422
#        116594
#        125353
#        142582
#        154856
#        176869
#        203578
#        223506
#        228208
#        237490
#        255394
#        274690
#
# Disc length: 3907 seconds
#
# Revision: 1
# Processed by: cddbd v1.5.2PL0 Copyright (c) Steve Scherf et al.
# Submitted via: ExactAudioCopy v0.95b4
#
DISCID=ee0f4111
DTITLE=Giovanni Mirabassi - Adelante
DYEAR=2011
DGENRE=Jazz
TTITLE0=L'internationale <P. Degeyter>
TTITLE1=Hasta Siempre (Angela Elvira Herrera Zaparta on Vocal) <C. Pue
TTITLE1=bla>
TTITLE2=The Partisan <L. Cohen>
TTITLE3=A luta continua <M. Markeba>
TTITLE4=Le deserteur <B. Vian>
TTITLE5=La estaca <L. Liach>
TTITLE6=Lili Marleen <N. Schultze>
TTITLE7=La carta <Quilapayun>
TTITLE8=Gallo rojo gallo negro <C. Sanchez>
TTITLE9=Assentamento <C. Buarque>
TTITLE10=Libertango <A. Piazzolla>
TTITLE11=Yo me quedo (Maikel Ante Fajardo on Vocal) <P. Milanes>
TTITLE12=Graine d'Ananar <L. Ferre>
TTITLE13=Le temps du muguet <V. Soloviov-Sedoi>
TTITLE14=Uno de abajo <S. Bravo>
TTITLE15=Chants de Canuts <A. Bruant>
TTITLE16=Gracias alla Vida (Angela Elvira Herrera Zaparta on Vocal) <V
TTITLE16=Parra>
EXTD=YEAR: 2011
EXTT0=
EXTT1=
EXTT2=
EXTT3=
EXTT4=
EXTT5=
EXTT6=
EXTT7=
EXTT8=
EXTT9=
EXTT10=
EXTT11=
EXTT12=
EXTT13=
EXTT14=
EXTT15=
EXTT16=
PLAYORDER=
